<svg width="26" height="25" viewBox="0 0 26 25" fill="none" xmlns="http://www.w3.org/2000/svg">
<path d="M9.74996 22.0582C10.3483 22.0582 10.8333 21.6093 10.8333 21.0555C10.8333 20.5018 10.3483 20.0529 9.74996 20.0529C9.15165 20.0529 8.66663 20.5018 8.66663 21.0555C8.66663 21.6093 9.15165 22.0582 9.74996 22.0582Z" stroke="black" stroke-width="2" stroke-linecap="round" stroke-linejoin="round"/>
<path d="M21.6667 22.0582C22.265 22.0582 22.75 21.6093 22.75 21.0555C22.75 20.5018 22.265 20.0529 21.6667 20.0529C21.0684 20.0529 20.5834 20.5018 20.5834 21.0555C20.5834 21.6093 21.0684 22.0582 21.6667 22.0582Z" stroke="black" stroke-width="2" stroke-linecap="round" stroke-linejoin="round"/>
<path d="M1.08337 1.00357H5.41671L8.32004 14.429C8.4191 14.8906 8.69044 15.3053 9.08655 15.6004C9.48266 15.8955 9.9783 16.0523 10.4867 16.0432H21.0167C21.5251 16.0523 22.0208 15.8955 22.4169 15.6004C22.813 15.3053 23.0843 14.8906 23.1834 14.429L24.9167 6.01679H6.50004" stroke="black" stroke-width="2" stroke-linecap="round" stroke-linejoin="round"/>
</svg>
